<?xml version="1.0" encoding="utf-8"?>
<svg viewBox="0 0 500 500" width="500" height="500" xmlns="http://www.w3.org/2000/svg">
  <rect x="34.584" y="93.622" width="334.023" height="357.671" style="stroke: rgb(0, 0, 0); fill: rgb(254, 255, 236);"/>
  <g transform="matrix(1, 0, 0, 1, 6.064319, 75.669397)">
    <g>
      <g>
        <path style="fill:#3D6889;" d="M369.679,391.654H21.976c-6.629,0-12-5.373-12-12V12c0-6.627,5.371-12,12-12h347.703 c6.627,0,12,5.373,12,12v367.654C381.679,386.281,376.306,391.654,369.679,391.654z M33.976,367.654h323.703V24H33.976V367.654z"/>
      </g>
      <g>
        <path style="fill:#3D6889;" d="M305.229,100.855H86.425c-6.627,0-12-5.371-12-12c0-6.627,5.373-12,12-12h218.805 c6.627,0,12,5.373,12,12C317.229,95.484,311.856,100.855,305.229,100.855z"/>
      </g>
      <g>
        <path style="fill:#3D6889;" d="M305.229,172.17H86.425c-6.627,0-12-5.371-12-12c0-6.627,5.373-12,12-12h218.805 c6.627,0,12,5.373,12,12C317.229,166.799,311.856,172.17,305.229,172.17z"/>
      </g>
      <g>
        <path style="fill:#3D6889;" d="M305.229,243.484H86.425c-6.627,0-12-5.371-12-12c0-6.627,5.373-12,12-12h218.805 c6.627,0,12,5.373,12,12C317.229,238.113,311.856,243.484,305.229,243.484z"/>
      </g>
      <g>
        <path style="fill:#3D6889;" d="M178.007,314.799H86.425c-6.627,0-12-5.372-12-12c0-6.627,5.373-12,12-12h91.582 c6.627,0,12,5.373,12,12C190.007,309.427,184.634,314.799,178.007,314.799z"/>
      </g>
    </g>
  </g>
  <g transform="matrix(1, 0, 0, 1, 42.718159, 65.619111)"/>
  <g transform="matrix(1, 0, 0, 1, 42.718159, 65.619111)"/>
  <g transform="matrix(1, 0, 0, 1, 42.718159, 65.619111)"/>
  <g transform="matrix(1, 0, 0, 1, 42.718159, 65.619111)"/>
  <g transform="matrix(1, 0, 0, 1, 42.718159, 65.619111)"/>
  <g transform="matrix(1, 0, 0, 1, 42.718159, 65.619111)"/>
  <g transform="matrix(1, 0, 0, 1, 42.718159, 65.619111)"/>
  <g transform="matrix(1, 0, 0, 1, 42.718159, 65.619111)"/>
  <g transform="matrix(1, 0, 0, 1, 42.718159, 65.619111)"/>
  <g transform="matrix(1, 0, 0, 1, 42.718159, 65.619111)"/>
  <g transform="matrix(1, 0, 0, 1, 42.718159, 65.619111)"/>
  <g transform="matrix(1, 0, 0, 1, 42.718159, 65.619111)"/>
  <g transform="matrix(1, 0, 0, 1, 42.718159, 65.619111)"/>
  <g transform="matrix(1, 0, 0, 1, 42.718159, 65.619111)"/>
  <g transform="matrix(1, 0, 0, 1, 42.718159, 65.619111)"/>
  <polygon style="fill: rgb(255, 157, 73);" points="418.037 192.383 248.869 349.392 211.51 324.626 386.022 152.764"/>
  <polygon style="fill: rgb(255, 204, 117);" points="391.359 157.716 211.51 324.626 184.824 289.953 354 132.951"/>
  <polygon style="fill: rgb(189, 21, 21);" points="498.093 118.09 450.065 162.666 407.372 132.951 466.075 88.374"/>
  <polygon style="fill: rgb(242, 72, 75);" points="466.071 88.371 412.705 137.899 386.022 103.231 434.052 58.654"/>
  <g transform="matrix(0.674383, 0, 0, 0.625885, 152.808703, 58.653325)" style="">
    <rect x="335.974" y="75.292" transform="matrix(-0.7071 0.7071 -0.7071 -0.7071 731.5841 -18.1559)" style="fill:#082947;" width="67.157" height="134.292"/>
    <polygon style="fill:#082947;" points="71.22,488.261 0,511.998 23.736,440.776 63.305,448.692 &#9;"/>
  </g>
  <polygon style="fill: rgb(242, 235, 217);" points="184.824 289.953 168.816 334.528 200.839 364.248 248.869 349.392"/>
  <g transform="matrix(0.674383, 0, 0, 0.625885, 467.322425, 87.621683)" style=""/>
  <g transform="matrix(0.674383, 0, 0, 0.625885, 467.322425, 87.621683)" style=""/>
  <g transform="matrix(0.674383, 0, 0, 0.625885, 467.322425, 87.621683)" style=""/>
  <g transform="matrix(0.674383, 0, 0, 0.625885, 467.322425, 87.621683)" style=""/>
  <g transform="matrix(0.674383, 0, 0, 0.625885, 467.322425, 87.621683)" style=""/>
  <g transform="matrix(0.674383, 0, 0, 0.625885, 467.322425, 87.621683)" style=""/>
  <g transform="matrix(0.674383, 0, 0, 0.625885, 467.322425, 87.621683)" style=""/>
  <g transform="matrix(0.674383, 0, 0, 0.625885, 467.322425, 87.621683)" style=""/>
  <g transform="matrix(0.674383, 0, 0, 0.625885, 467.322425, 87.621683)" style=""/>
  <g transform="matrix(0.674383, 0, 0, 0.625885, 467.322425, 87.621683)" style=""/>
  <g transform="matrix(0.674383, 0, 0, 0.625885, 467.322425, 87.621683)" style=""/>
  <g transform="matrix(0.674383, 0, 0, 0.625885, 467.322425, 87.621683)" style=""/>
  <g transform="matrix(0.674383, 0, 0, 0.625885, 467.322425, 87.621683)" style=""/>
  <g transform="matrix(0.674383, 0, 0, 0.625885, 467.322425, 87.621683)" style=""/>
  <g transform="matrix(0.674383, 0, 0, 0.625885, 467.322425, 87.621683)" style=""/>
</svg>