<svg height="1em" width="1em" id="eGx65a1Yb4X1" xmlns="http://www.w3.org/2000/svg"
     xmlns:xlink="http://www.w3.org/1999/xlink" viewBox="0 0 16 16" shape-rendering="geometricPrecision"
     text-rendering="geometricPrecision">
    <style>
        <![CDATA[#eGx65a1Yb4X3_to {animation: eGx65a1Yb4X3_to__to 1000ms linear infinite normal forwards}@keyframes eGx65a1Yb4X3_to__to { 0% {transform: translate(7.998405px,11.176553px)} 50% {transform: translate(7.998404px,8px)} 100% {transform: translate(8px,11.176553px)}}]]></style>
    <path d="M4.887,6.2L3.923,6.035C2.993708,5.877862,2.055021,6.256705,1.495129,7.014859C0.935238,7.773013,0.849309,8.781612,1.272878,9.623553C1.696447,10.465494,2.557519,10.997669,3.5,11L6,11L6,12L3.5,12C2.178821,11.999808,0.970336,11.255674,0.375422,10.076018C-0.219493,8.896361,-0.099444,7.482233,0.685811,6.419742C1.471066,5.357251,2.787695,4.827479,4.09,5.05C4.41246,3.267697,5.673226,1.798954,7.386096,1.210176C9.098967,0.621399,10.996309,1.004583,12.346432,2.211958C13.696555,3.419332,14.288504,5.262247,13.894,7.03C15.180115,7.237721,16.091364,8.397945,15.988408,9.696653C15.885452,10.99536,14.80278,11.997515,13.5,12L10,12L10,11L13.5,11C14.281946,10.999485,14.932322,10.398367,14.994294,9.61888C15.056266,8.839394,14.509042,8.143062,13.737,8.019L12.7,7.854L12.916,6.826C13.19949,5.424983,12.714012,3.97915,11.642441,3.033131C10.57087,2.087113,9.076003,1.784633,7.720941,2.239631C6.36588,2.69463,5.35649,3.837983,5.073,5.239L4.888,6.199Z"
          fill="rgb(0,0,0)" stroke="rgb(0,0,0)" stroke-width="0" stroke-miterlimit="1"/>
    <g id="eGx65a1Yb4X3_to" transform="translate(7.998405,11.176553)">
        <g id="eGx65a1Yb4X3" transform="translate(-8.002882,-10.176553)">
            <path id="eGx65a1Yb4X4"
                  d="M5,8.854C5.19525,9.049191,5.51175,9.049191,5.707,8.854L8,6.56L10.293,8.853C10.418537,8.982978,10.604439,9.035106,10.779254,8.989349C10.954068,8.943591,11.090591,8.807068,11.136349,8.632254C11.182106,8.457439,11.129978,8.271537,11,8.146L8.354,5.5C8.260196,5.405958,8.132827,5.353106,8,5.353106C7.867173,5.353106,7.739804,5.405958,7.646,5.5L5,8.146C4.905958,8.239804,4.853106,8.367173,4.853106,8.5C4.853106,8.632827,4.905958,8.760196,5,8.854Z"
                  clip-rule="evenodd" fill="rgb(0,0,0)" fill-rule="evenodd" stroke="rgb(0,0,0)" stroke-width="0"
                  stroke-miterlimit="1"/>
            <path id="eGx65a1Yb4X5"
                  d="M8,6C8.276142,6,8.5,6.223858,8.5,6.5L8.5,14.5C8.5,14.776142,8.276142,15,8,15C7.723858,15,7.5,14.776142,7.5,14.5L7.5,6.5C7.5,6.223858,7.723858,6,8,6Z"
                  transform="matrix(1 0 0 1 0.002879 0)" clip-rule="evenodd" fill="rgb(0,0,0)" fill-rule="evenodd"
                  stroke="rgb(0,0,0)" stroke-width="0" stroke-miterlimit="1"/>
        </g>
    </g>
</svg>